<svg id="Calque_1" data-name="Calque 1" xmlns="http://www.w3.org/2000/svg" viewBox="0 0 625.02 625.02"><defs><style>.cls-1{fill:#f7b837;}.cls-2{fill:#b46e44;}.cls-3{font-size:52.12px;font-family:InkFree, Ink Free;}.cls-3,.cls-8{fill:#fff;stroke:#fff;stroke-miterlimit:10;stroke-width:3px;}.cls-4{fill:#be8056;}.cls-5{fill:#d3a58b;}.cls-6{fill:#d4a68c;}.cls-7{fill:#cd9678;}.cls-8{opacity:0.49;}</style></defs><circle class="cls-1" cx="312.51" cy="312.51" r="312.51"/><ellipse class="cls-2" cx="305.7" cy="396.09" rx="160.85" ry="32.47"/><text class="cls-3" transform="translate(93.34 484.39)">T’as pensé au pain?</text><rect class="cls-4" x="288.34" y="61.32" width="52" height="12.94"/><polygon class="cls-4" points="288.25 131.11 271.23 131.11 271.57 72.55 288.25 61.32 288.25 131.11"/><rect class="cls-2" x="325.51" y="335.55" width="52" height="12.94" transform="translate(666.1 409.8) rotate(-180)"/><polygon class="cls-4" points="340.68 131.11 357.7 131.11 357.36 72.55 340.68 61.32 340.68 131.11"/><rect class="cls-2" x="201.87" y="105.57" width="122.04" height="40.51"/><polygon class="cls-4" points="201.87 106.25 201.87 138.77 247.49 110.51 201.87 106.25"/><polygon class="cls-5" points="200.25 133.32 247.49 110.51 251.06 138.43 200.25 133.32"/><rect class="cls-2" x="324.46" y="379.8" width="122.04" height="40.51" transform="translate(734.06 525.89) rotate(-180)"/><polygon class="cls-4" points="409.6 106.25 409.6 138.77 363.98 110.51 409.6 106.25"/><polygon class="cls-5" points="411.21 133.32 363.98 110.51 360.4 138.43 411.21 133.32"/><rect class="cls-4" x="279.91" y="75.62" width="52" height="12.94"/><polygon class="cls-5" points="279.83 145.4 262.81 145.4 263.15 86.85 279.83 75.62 279.83 145.4"/><rect class="cls-4" x="317.08" y="349.84" width="52" height="12.94" transform="translate(649.25 438.4) rotate(-180)"/><polygon class="cls-5" points="332.25 145.4 349.28 145.4 348.94 86.85 332.25 75.62 332.25 145.4"/><polygon class="cls-6" points="416.25 397.32 195.15 397.32 200.27 344.89 411.14 345.95 416.25 397.32"/><rect class="cls-7" x="200.26" y="133.32" width="210.89" height="212.43"/><rect class="cls-8" x="239.32" y="163.04" width="132.77" height="163.4" rx="12"/><path class="cls-2" d="M342.05,557c-7.88,0-15.77,0-23.65,0-9.19-.08-14.48-5.26-14.53-14.38q-.14-23.65,0-47.3c.05-9,5.17-14,14.24-14.07,9.31-.06,18.63,0,27.94,0,4.47,0,6.73,1.86,6.84,5.36s-2.35,5.89-6.81,5.92c-8.74.05-17.49.14-26.22,0-4.17-.08-5.13,1.36-4.24,7.76a135.47,135.47,0,0,1,.11,37c-.93,6.9-.58,8.89,5.43,8.21a188.27,188.27,0,0,1,41.51,0c4.42.48,5.72-.52,5.67-4-.15-8.45-.08-16.91,0-25.37,0-4.88,2.09-7.43,5.82-7.37s5.54,2.43,5.57,7.16c.06,9,.12,18.07,0,27.09-.13,8.76-5.27,13.85-14,14C357.82,557.08,349.93,557,342.05,557Z" transform="translate(-36.91 -274.23)"/><path class="cls-2" d="M363.18,488.54l10,10.62L348.84,522l-10-10.6Z" transform="translate(-36.91 -274.23)"/><path class="cls-2" d="M375.42,497.83l-10.69-11.37c3.12-2.12,6.89-6.19,8.5-5.46a17,17,0,0,1,8.13,8.77C382,491.34,377.78,494.78,375.42,497.83Z" transform="translate(-36.91 -274.23)"/><path class="cls-2" d="M346.83,523.65,333,527l3.91-13.75Z" transform="translate(-36.91 -274.23)"/></svg>